<svg width="544" height="611" viewBox="0 0 544 611" fill="none" xmlns="http://www.w3.org/2000/svg">
<rect y="67" width="544" height="544" rx="40" fill="white"/>
<rect y="67" width="544" height="144" fill="#E5EEFB"/>
<path d="M259.049 295.255C264.551 284.106 280.449 284.106 285.951 295.255L311.477 346.977C313.662 351.404 317.886 354.473 322.771 355.183L379.85 363.477C392.154 365.264 397.066 380.384 388.163 389.062L346.861 429.322C343.326 432.768 341.712 437.733 342.547 442.599L352.297 499.447C354.399 511.701 341.537 521.045 330.533 515.26L279.48 488.42C275.11 486.122 269.89 486.122 265.52 488.42L214.467 515.26C203.463 521.045 190.601 511.701 192.703 499.447L202.453 442.599C203.288 437.733 201.674 432.768 198.139 429.322L156.837 389.062C147.934 380.384 152.846 365.264 165.15 363.477L222.229 355.183C227.114 354.473 231.338 351.404 233.523 346.977L259.049 295.255Z" fill="#FFE484"/>
<rect x="83" y="5" width="66" height="125" rx="25" fill="#B4C5DE" stroke="#B4C5DE" stroke-width="10"/>
<rect x="395" y="5" width="66" height="125" rx="25" fill="#B4C5DE" stroke="#B4C5DE" stroke-width="10"/>
<rect x="239" y="5" width="66" height="125" rx="25" fill="#B4C5DE" stroke="#B4C5DE" stroke-width="10"/>
</svg>
